<?xml version="1.0" encoding="utf-8"?>
<!-- Generator: Adobe Illustrator 23.0.1, SVG Export Plug-In . SVG Version: 6.00 Build 0)  -->
<svg version="1.1" id="Layer_1" xmlns="http://www.w3.org/2000/svg" xmlns:xlink="http://www.w3.org/1999/xlink" x="0px" y="0px"
	 viewBox="0 0 333.33 470.51" style="enable-background:new 0 0 333.33 470.51;" xml:space="preserve">
<style type="text/css">
	.st0{fill:#FFFFFF;opacity:0.02;}
	.st1{stroke:#000000;stroke-width:3;stroke-linecap:round;stroke-linejoin:round;stroke-miterlimit:10;}
</style>
<g id="question_1_" class="st0">
	<g>
		<path class="st1" d="M89.81,90.89c0,0,24.25,11.88,29.62,37.8c6.33,30.58-34.33,29.51-46.88,26.68
			c-26.32-5.93-70.61-33.2-66.37-72.42s55.18-69.17,108.9-67.91c38.11,0.84,103.69,3.67,176.3,67.32
			c49.82,43.71,37.18,116.18,7.67,141.54s-68.34,66.21-58,119.47l-35.94-3.15c0,0-21.7-43.83-1.39-88.63s64.54-95.01,36.16-132.43
			c-38.1-50.27-91.93-49.91-91.93-49.91S110.59,67.09,89.81,90.89z"/>
		
			<ellipse transform="matrix(0.3069 -0.9517 0.9517 0.3069 -227.9554 527.6927)" class="st1" cx="248.32" cy="420.35" rx="33.27" ry="56.73"/>
	</g>
</g>
</svg>
