<?xml version="1.0" encoding="utf-8"?>
<!-- Generator: Adobe Illustrator 23.0.1, SVG Export Plug-In . SVG Version: 6.00 Build 0)  -->
<svg version="1.1" id="Layer_1" xmlns="http://www.w3.org/2000/svg" xmlns:xlink="http://www.w3.org/1999/xlink" x="0px" y="0px"
	 viewBox="0 0 1920 276.29" style="enable-background:new 0 0 1920 276.29;" xml:space="preserve">
<style type="text/css">
	.st0{fill:#636464;stroke:#000000;stroke-miterlimit:10;}
</style>
<path class="st0" d="M-204.36,195.46c0-5.13,23.9-18.73,27.97-21.62c26.93-19.15,55.98-36.27,86.08-51.78
	C139.16,3.84,409.37-4.05,669.23,30c185.15,24.26,366.32,66.41,551.02,92.96c91.83,13.2,189.2,22.1,275.8-6.57
	c50.66-16.77,94.24-45.38,142.27-66.86c151.08-67.55,315.61-45.31,471.82-4.22c83.47,21.96,227.05,57.77,226.75,147.72
	c-0.09,27.75-0.18,55.51-0.27,83.26c-150.09,0-300.17,0-450.26,0c-161,0-322,0-483,0c-179.42,0-358.85,0-538.27,0
	c-168.51,0-337.03,0-505.54,0c-128.27,0-256.54,0-384.82,0c-58.7,0-117.4,0-176.1,0c-1,0-1.99,0-2.99,0
	C-204.36,276.29-204.36,195.49-204.36,195.46z"/>
</svg>
